<svg version="1.1" id="Layer_1" xmlns="http://www.w3.org/2000/svg" x="0" y="0" viewBox="0 0 591.4 215.3" xml:space="preserve"><style>.st1{fill:#0f4e8f}.st2{fill:#fff}.st3{fill:#0b4e90}</style><switch><g><path d="M119.2 69.3l21.6 65s3.1 12.6 8.3 5.5L219.2 5.1" fill="none" stroke="#eb4037" stroke-width="3" stroke-miterlimit="10"/><path class="st1" d="M412.8 76.8s9.7-14.9 32.5-12.2c0 0 14.6.4 22.5 14.5 0 0 9.7 13.9 4.1 36.1 0 0-5.3 23-30.9 24.3 0 0-23.7 2.6-32.6-20.1-.1 0-9.4-21.1 4.4-42.6z"/><path class="st2" d="M429.2 84.3s5.7-7.1 15.8-3.2c0 0 6.4 2.6 7.9 11.3 0 0 2.8 11.7-1.1 22 0 0-4.8 13.3-17.2 8.1 0 0-10.7-2.9-9.7-23.7 0 0 0-7.7 4.3-14.5z"/><path class="st1" d="M377 135.9s.1 2 .7 2h17s1.1.3 1.1-1.5l-.1-96.7s.5-2.9-2.5-2.9h-14.5s-2.3 0-2.3 2.9v31.7s-4-8.6-21.6-6.6c0 0-16.5 1-23.6 20.2 0 0-5.7 13.4-.9 33.2 0 0 5.4 21 25.8 21.6 0 0 14.9 1 20.3-9.1l.6 5.2zM245.2 104.5s-.1 2-1.1 1.9l1.9.6-.8-2.5z"/><path class="st2" d="M256.5 69.1s.2-2.1 2-2.9c1.8-.8.2-.5.2-.5l-2.4-.2.2 3.6zM376.2 39.7s.2-2.1 2-2.9c1.8-.8.2-.5.2-.5l-2.4-.2.2 3.6zM276 68.4s-.6-1.6-2.6-2-.4-.4-.4-.4l2.5-.5.5 2.9z"/><path class="st3" d="M9 153.5h7.2l13.9 32.8h.1l14-32.8h7.1v41.8h-4.9v-35.1h-.1l-14.7 35.1h-3L14 160.2h-.1v35.1H9v-41.8zM86.1 171.2c1.4-1.5 3-2.5 5-3.2 1.9-.7 3.9-1 5.8-1 4 0 6.9 1 8.7 2.9 1.8 1.9 2.7 4.9 2.7 8.8v11.9c0 .8 0 1.6.1 2.5.1.8.2 1.6.3 2.3h-4.3c-.2-.6-.2-1.3-.3-2.1v-2h-.1c-.9 1.4-2.1 2.6-3.6 3.5-1.5.9-3.3 1.4-5.4 1.4a16 16 0 01-3.9-.5c-1.2-.4-2.3-.9-3.2-1.6-.9-.7-1.6-1.5-2.2-2.6-.5-1-.8-2.2-.8-3.5 0-2.3.6-4.1 1.7-5.4 1.2-1.3 2.6-2.3 4.3-2.9 1.7-.6 3.6-1 5.6-1.2 2-.2 3.8-.2 5.5-.2h1.7v-.8c0-2-.6-3.5-1.8-4.5-1.2-1-2.8-1.5-5-1.5-1.5 0-2.9.2-4.3.7-1.4.5-2.7 1.2-3.7 2.3l-2.8-3.3zM99.2 182c-2.9 0-5.2.4-6.9 1.2-1.7.8-2.5 2.2-2.5 4.1 0 1.7.6 3 1.7 3.7 1.1.7 2.6 1.1 4.3 1.1 1.3 0 2.5-.2 3.4-.7 1-.5 1.8-1.1 2.5-1.8s1.2-1.6 1.5-2.6c.3-1 .5-2.1.6-3.2V182h-4.6zM142.2 174.2c0-1.3 0-2.4-.1-3.5s-.1-2.1-.1-3h4.3c0 .7 0 1.5.1 2.2 0 .7.1 1.5.1 2.3h.1c.3-.7.7-1.3 1.3-1.9.6-.6 1.2-1.2 2-1.7s1.6-.9 2.6-1.2c1-.3 2-.4 3.1-.4.3 0 .6 0 .9.1.3 0 .6.1.9.2l-.3 4.7c-.8-.2-1.6-.4-2.4-.4-2.8 0-4.8.9-6.1 2.7-1.3 1.8-1.9 4.3-1.9 7.5v13.5h-4.5v-21.1zM188.3 150.7h4.5v29.2l12.3-12.2h6.4l-13.1 12.6 14.4 15.1h-6.7l-13.4-14.5v14.5h-4.5v-44.7zM267.2 190.3c-1.6 2.1-3.4 3.6-5.3 4.5-1.9.8-4.2 1.3-6.7 1.3-2.1 0-4-.4-5.7-1.2-1.7-.8-3.1-1.8-4.3-3.1-1.2-1.3-2.1-2.8-2.7-4.6-.6-1.8-1-3.7-1-5.7 0-2.1.3-4.1 1-5.9.7-1.8 1.7-3.3 2.9-4.6 1.2-1.3 2.7-2.3 4.4-3 1.7-.7 3.6-1.1 5.6-1.1 1.9 0 3.6.3 5.2 1s2.9 1.6 4.1 2.8c1.1 1.2 2 2.8 2.6 4.5.6 1.8.9 3.8.9 6.1v1.5h-21.9c.1 1.2.4 2.3.8 3.4.5 1.1 1.1 2 1.9 2.8.8.8 1.7 1.4 2.7 1.9s2.2.7 3.4.7c2 0 3.6-.4 5-1.1 1.4-.7 2.6-1.8 3.6-3.1l3.5 2.9zm-3.9-11.3c-.1-2.4-.8-4.3-2.3-5.7-1.4-1.4-3.4-2.1-5.9-2.1-2.5 0-4.5.7-6.1 2.1-1.5 1.4-2.5 3.3-2.8 5.7h17.1zM315.7 171.6h-8v13.8c0 .9 0 1.7.1 2.5 0 .8.2 1.4.5 2 .3.6.7 1 1.2 1.4.5.3 1.3.5 2.3.5.7 0 1.3-.1 2-.2.7-.2 1.4-.4 2-.7l.2 4.2c-.8.4-1.6.6-2.6.8-.9.2-1.8.2-2.7.2-1.6 0-2.9-.2-3.9-.7-1-.4-1.7-1-2.3-1.8-.5-.8-.9-1.8-1.1-2.9-.2-1.2-.3-2.5-.3-3.9v-15.2h-5.9v-3.9h5.9v-7.9h4.5v7.9h8v3.9zM346.7 167.7h4.5v4h.1c1.2-1.5 2.7-2.7 4.3-3.5 1.6-.8 3.4-1.2 5.4-1.2 2.1 0 4.1.4 5.8 1.1 1.8.7 3.3 1.7 4.5 3 1.2 1.3 2.2 2.8 2.9 4.6.7 1.8 1 3.7 1 5.8s-.3 4-1 5.8c-.7 1.8-1.7 3.3-2.9 4.6-1.2 1.3-2.7 2.3-4.3 3-1.7.7-3.4 1.1-5.3 1.1-2.4 0-4.6-.5-6.4-1.6-1.8-1.1-3.2-2.4-4-4h-.1v18.4h-4.5v-41.1zm4.6 13.8c0 1.5.2 2.8.7 4 .4 1.2 1.1 2.3 1.9 3.2.8.9 1.9 1.7 3 2.2 1.2.5 2.5.8 4 .8s2.8-.3 4-.8 2.2-1.3 3-2.2c.8-.9 1.5-2 1.9-3.2.4-1.2.7-2.6.7-4s-.2-2.8-.7-4c-.4-1.2-1.1-2.3-1.9-3.2-.8-.9-1.9-1.7-3-2.2-1.2-.5-2.5-.8-4-.8s-2.8.3-4 .8c-1.2.5-2.2 1.3-3 2.2-.8.9-1.5 2-1.9 3.2-.5 1.2-.7 2.5-.7 4zM408.5 150.7h4.5v44.7h-4.5v-44.7zM447.3 171.2c1.4-1.5 3-2.5 5-3.2 1.9-.7 3.9-1 5.8-1 4 0 6.9 1 8.7 2.9 1.8 1.9 2.7 4.9 2.7 8.8v11.9c0 .8 0 1.6.1 2.5.1.8.2 1.6.3 2.3h-4.3c-.2-.6-.2-1.3-.3-2.1v-2h-.1c-.9 1.4-2.1 2.6-3.6 3.5-1.5.9-3.3 1.4-5.4 1.4a16 16 0 01-3.9-.5c-1.2-.4-2.3-.9-3.2-1.6s-1.6-1.5-2.2-2.6c-.5-1-.8-2.2-.8-3.5 0-2.3.6-4.1 1.7-5.4 1.2-1.3 2.6-2.3 4.3-2.9 1.7-.6 3.6-1 5.6-1.2s3.8-.2 5.5-.2h1.7v-.8c0-2-.6-3.5-1.8-4.5-1.2-1-2.8-1.5-5-1.5-1.5 0-2.9.2-4.3.7s-2.7 1.2-3.7 2.3l-2.8-3.3zm13.1 10.8c-2.9 0-5.2.4-6.9 1.2-1.7.8-2.5 2.2-2.5 4.1 0 1.7.6 3 1.7 3.7 1.1.7 2.6 1.1 4.3 1.1 1.3 0 2.5-.2 3.4-.7 1-.5 1.8-1.1 2.5-1.8s1.2-1.6 1.5-2.6c.3-1 .5-2.1.6-3.2V182h-4.6zM522.7 174.6c-1-1.2-2-2-3.1-2.6-1.1-.5-2.4-.8-3.7-.8-1.5 0-2.8.3-4 .8-1.2.5-2.1 1.3-2.9 2.2-.8.9-1.3 2-1.7 3.3-.4 1.2-.6 2.6-.6 4s.2 2.7.7 4c.4 1.2 1.1 2.3 1.9 3.3.8.9 1.7 1.7 2.9 2.2 1.1.5 2.4.8 3.8.8 3 0 5.3-1.1 6.9-3.4l3.4 3.2c-1.3 1.5-2.9 2.7-4.6 3.4-1.8.7-3.6 1.1-5.6 1.1-2.1 0-4-.4-5.7-1.1s-3.2-1.7-4.4-3c-1.2-1.3-2.2-2.8-2.8-4.6-.7-1.8-1-3.7-1-5.8 0-2.1.3-4 1-5.8.7-1.8 1.6-3.3 2.9-4.6 1.2-1.3 2.7-2.3 4.4-3 1.7-.7 3.6-1.1 5.7-1.1 2 0 3.9.4 5.7 1.1 1.8.7 3.4 1.8 4.7 3.3l-3.9 3.1zM581.3 190.3c-1.6 2.1-3.4 3.6-5.3 4.5-1.9.8-4.2 1.3-6.7 1.3-2.1 0-4-.4-5.7-1.2-1.7-.8-3.1-1.8-4.3-3.1-1.2-1.3-2.1-2.8-2.7-4.6-.6-1.8-1-3.7-1-5.7 0-2.1.3-4.1 1-5.9.7-1.8 1.7-3.3 2.9-4.6 1.2-1.3 2.7-2.3 4.4-3 1.7-.7 3.6-1.1 5.6-1.1 1.9 0 3.6.3 5.2 1s2.9 1.6 4.1 2.8c1.1 1.2 2 2.8 2.6 4.5.6 1.8.9 3.8.9 6.1v1.5h-21.9c.1 1.2.4 2.3.8 3.4.5 1.1 1.1 2 1.9 2.8.8.8 1.7 1.4 2.7 1.9s2.2.7 3.4.7c2 0 3.6-.4 5-1.1 1.4-.7 2.6-1.8 3.6-3.1l3.5 2.9zm-3.9-11.3c-.1-2.4-.8-4.3-2.3-5.7-1.4-1.4-3.4-2.1-5.9-2.1-2.5 0-4.5.7-6.1 2.1-1.5 1.4-2.5 3.3-2.8 5.7h17.1z"/><path class="st1" d="M256.3 137.9V67.3s-.2-1.6 2.4-1.6 14.3.3 14.3.3 2.9-.5 2.9 1v8.3s5.1-13.2 23.7-10.8c0 0 19.1 1.9 19.1 25v48.4H300V93.7s.3-13.1-10.9-13.1c0 0-13.1-1.7-13.1 13.1V138h-19.7zM241 106.4h-39.5s-.3 14.7 10.6 17.4c0 0 9.6 2.2 14.4-5.5l.3-1.1s0-.6 2.6-.6l16.4-.3s1.8-.1-.6 4.1c0 0-7.1 16.4-25 19.3 0 0-35.5 7.3-38.5-34.2 0 0-4.4-31.5 23.4-40 0 0 25-8.2 37.7 13.9 0 0 5.7 9.3 4.6 23.7 0 0 .3 3.2-1.7 3.2H241z"/><path class="st2" d="M201.8 94.1h26.1S229 79 215 78.7c-.1 0-13.3-1-13.2 15.4z"/><path class="st1" d="M43.7 13.2l.6-2s.4-1.6 2.4-1.3h44.4s2.2-.1 2.8 1.7l.5 1.8 40.8 127.5.4 1.2s.2.6-.4.6H98.1s-.8.2-1-.5l-7.4-24.5-.3-.9s-.1-.4-.6-.3h-41s-.4-.1-.5.3l-2.6 8.9-4.7 16.4s.1.5-.8.5H4.4s-.4.1-.4-.4l2-6.3 3.8-12.2 5.9-19.3 28-91.2z"/><path class="st2" d="M53.6 87.8s-.4.8.5.8h28.4s.4.1.2-.8L68.5 34.6H67L53.6 87.8z"/><ellipse class="st2" cx="362.3" cy="102" rx="15.1" ry="22.2"/><path class="st1" d="M483.1 137.4V70.8s-.7-4.6 2.4-4.6l13.7-.1s2.6-.2 2.6 1l.4 11.9s2.5-8.4 11.3-12.2c0 0 3.8-1.8 8.4-2.1 0 0 2.4-.2 2.4 1.2v16.4s0 1.5-1.3 1.3c0 0-9-.9-14.8 4.1s-6 15.3-5.9 20.9l-.1 28.8s.1.6-.3.6h-18.2c-.1-.1-.7.1-.6-.6zM530.4 67.2v13.3s-.1 1.4 1.2 1.2c1.6-.2 30.8 0 30.8 0s.7 0 0 .7l-32.5 39.2s-1.1 1.1-1.1 2v13s0 1.2.8 1.2h54s.8.3 1-1l2.1-13.9s.2-.8-.8-.8h-34.2s-.6-.1-.1-.5l32.8-39.7s.2-.1.2-1.2v-14s.2-.6-.8-.6h-52.3c-.3.1-1.2 0-1.1 1.1z"/></g></switch></svg>